<?xml version="1.0" encoding="UTF-8"?>

<!--
 Copyright (c) 2022, Oracle and/or its affiliates. All rights reserved.
 DO NOT ALTER OR REMOVE COPYRIGHT NOTICES OR THIS FILE HEADER.

 This code is free software; you can redistribute it and/or modify it
 under the terms of the GNU General Public License version 2 only, as
 published by the Free Software Foundation.  Oracle designates this
 particular file as subject to the "Classpath" exception as provided
 by Oracle in the LICENSE file that accompanied this code.

 This code is distributed in the hope that it will be useful, but WITHOUT
 ANY WARRANTY; without even the implied warranty of MERCHANTABILITY or
 FITNESS FOR A PARTICULAR PURPOSE.  See the GNU General Public License
 version 2 for more details (a copy is included in the LICENSE file that
 accompanied this code).

 You should have received a copy of the GNU General Public License version
 2 along with this work; if not, write to the Free Software Foundation,
 Inc., 51 Franklin St, Fifth Floor, Boston, MA 02110-1301 USA.

 Please contact Oracle, 500 Oracle Parkway, Redwood Shores, CA 94065 USA
 or visit www.oracle.com if you need additional information or have any
 questions.
-->

<svg version="1.1"
     width="500" height="340"
     xmlns="http://www.w3.org/2000/svg"
     xmlns:xlink="http://www.w3.org/1999/xlink">
    <style><![CDATA[
        text {
            font: 30px 'DejaVu Sans', Verdana, Arial, sans-serif;
            fill: #d91c1b;
            text-anchor: middle;
            dominant-baseline: middle;
        }
    ]]></style>

    <path
            d="M  75,290 L 300,50  L 450,210
               M 225,130 L 300,210
               M 150,210 L 225,290"
            fill="none"
            stroke="#000000"
    />

    <circle
            id="circleA"
            cx="300"
            cy="50"
            r="30"
            fill="#e6e6ff"
            stroke="#000000"
            stroke-width="1"
    />
    <text
            x="300"
            y="50"
            class="centered"
    >A</text>

    <use
            x="-75"
            y="80"
            xlink:href="#circleA"
    />
    <text
            x="225"
            y="130"
    >B</text>

    <use
            x="75"
            y="80"
            xlink:href="#circleA"
    />
    <text
            x="375"
            y="130"
    >C</text>

    <use
            x="-150"
            y="160"
            xlink:href="#circleA"
    />
    <text
            x="150"
            y="210"
    >D</text>

    <use
            x="0"
            y="160"
            xlink:href="#circleA"
    />
    <text
            x="300"
            y="210"
    >E</text>

    <use
            x="150"
            y="160"
            xlink:href="#circleA"
    />
    <text
            x="450"
            y="210"
    >F</text>

    <use
            x="-225"
            y="240"
            xlink:href="#circleA"
    />
    <text
            x="75"
            y="290"
    >G</text>

    <use
            x="-75"
            y="240"
            xlink:href="#circleA"
    />
    <text
            x="225"
            y="290"
    >H</text>

    <path
            d="M 490,210
               C 490,180 460,125 430,90
                 400,55  360,10  300,10
                 240,10  148,123 190,165
               c  41,42   58,-11 110,-10
                  52,1    78,62  115,85
                  37,22   75,17   75,-30
               z"
            fill="none"
            stroke="#0000ff"
            stroke-width="4"
    />
    <path
            d="M  340,235
               C  367,188 276,75  225,75
               c  -51,0   -72,23  -92,50
                  -20,27  -41,91  -18,120
                   22,30   70,-15 110,-15
                   40,0    87,52  115,5
               z"
            fill="none"
            stroke="#00ff00"
            stroke-width="4"
    />
    <path
            d="m 225,330
               c  40,0     50,-20   40,-55
                 -10,-30  -45,-70  -85,-98
                 -40,-30 -100,35  -125,63
                 -27,25   -27,90    15,90
                  42,0     47,-20   80,-20
                  32,0     34,20    75,20
               z"
            fill="none"
            stroke="#ff0000"
            stroke-width="4"
    />

</svg>
