#define test_width 16
#define test_height 3
#define ht_x 1
#define ht_y 2
static unsigned char test_bits[] = {
0x13, 0x11, 0x15, 0x00, 0xAB, 0xcd };
