<?xml version="1.0" encoding="UTF-8"?>

<!--
 Copyright (c) 2025, Oracle and/or its affiliates. All rights reserved.
 DO NOT ALTER OR REMOVE COPYRIGHT NOTICES OR THIS FILE HEADER.

 Licensed under the Universal Permissive License v 1.0 as shown at https://oss.oracle.com/licenses/upl/
-->

<svg version="1.1" viewBox="0 0 100 100" xmlns="http://www.w3.org/2000/svg">
    <g fill="none" stroke="#fff" stroke-linecap="round">
        <path d="m61.366 25.644a24.947 24.947 0 0 1 26.043 12.071 24.947 24.947 0 0 1-2.5573 28.591 24.947 24.947 0 0 1-27.772 7.2578" stroke-width="7.6"/>
        <path d="m40.641 73.342a24.947 24.947 0 0 1-15.448-23.973 24.947 24.947 0 0 1 17.134-22.799" stroke-width="7.6"/>
        <path d="m50.882 5.5255v10.822" stroke-width="7.533"/>
        <path d="m50.598 84.464v10.822" stroke-width="7.533"/>
        <path d="m24.315 74.134-7.6524 7.6524" stroke-width="7.533"/>
        <path d="m18.223 16.442c7.6524 7.6524 7.6524 7.6524 7.6524 7.6524" stroke-width="7.533"/>
        <path d="m15.446 49.162h-10.822" stroke-width="7.533"/>
        <path d="m61.431 26.277a34.305 34.305 0 0 1-4.4675 46.725" stroke-width="7.6892"/>
    </g>
</svg>
